PathFileType	4	(X/Y/Z)	/Users/niels/Desktop/University/Third Semester/Perception and Action/Exam/Gymnastics Motion Tracking/Code for Gym Tracking/Analyzed Data/Start Salto/stsalto_bad_id11_1_Sports2D/stsalto_bad_id11_1_Sports2D_px_person00.trc
DataRate	CameraRate	NumFrames	NumMarkers	Units	OrigDataRate	OrigDataStartFrame	OrigNumFrames
29.850746268656717	29.850746268656717	10	22	m	29.850746268656717	150	201
Frame#	Time	Hip			RHip			RKnee			RAnkle			RBigToe			RSmallToe			RHeel			LHip			LKnee			LAnkle			LBigToe			LSmallToe			LHeel			Neck			Head			Nose			RShoulder			RElbow			RWrist			LShoulder			LElbow			LWrist		
		X1	Y1	Z1	X2	Y2	Z2	X3	Y3	Z3	X4	Y4	Z4	X5	Y5	Z5	X6	Y6	Z6	X7	Y7	Z7	X8	Y8	Z8	X9	Y9	Z9	X10	Y10	Z10	X11	Y11	Z11	X12	Y12	Z12	X13	Y13	Z13	X14	Y14	Z14	X15	Y15	Z15	X16	Y16	Z16	X17	Y17	Z17	X18	Y18	Z18	X19	Y19	Z19	X20	Y20	Z20	X21	Y21	Z21	X22	Y22	Z22
150	5.025	1.189094170169323	-0.5528156839608519	0.0	1.2047955611202867	-0.5600287145792966	0.0	1.316290727225303	-0.49812098446206665	0.0	1.3828982739563684	-0.6140223111716396	0.0	1.4405469981951657	-0.6177825422231266	0.0	1.4341491277911775	-0.6279970476695608	0.0	1.3791786301398137	-0.6310293900096117	0.0	1.1854579665466212	-0.5308695263555524	0.0	1.1917082272827575	-0.42869044955101915	0.0	1.3149799598540757	-0.3767539415140572	0.0	1.3375512570204273	-0.33101960792201224	0.0	1.3369626027498223	-0.3329317650005347	0.0	1.332187816183134	-0.3845863160521241	0.0	1.0814650665946934	-0.4594070670270837	0.0	1.0656699864104069	-0.38470229411602935	0.0	1.1120508814299672	-0.41246703944352986	0.0	1.0985244465565849	-0.47705584743578416	0.0	1.1951779531602909	-0.5238588572574209	0.0	1.2725090632154428	-0.49519295594857227	0.0	1.0745727241391176	-0.4733761133778519	0.0	1.1576001374405767	-0.5115481239226575	0.0	1.2218562310279468	-0.4923995074128424	0.0
151	5.0585	1.1923641508469016	-0.5543441619621917	0.0	1.206534378714649	-0.5616026836843965	0.0	1.3229083219838427	-0.5057860980937897	0.0	1.3846791108288368	-0.6246592684280292	0.0	1.4413656939031325	-0.6352208257983651	0.0	1.4345091570773592	-0.6442756089605964	0.0	1.3801179024352237	-0.6412629310588139	0.0	1.1891003193449143	-0.5319890174164252	0.0	1.2013804304430482	-0.42856438969507776	0.0	1.3263513496258792	-0.3788496919596215	0.0	1.346747550671335	-0.3312659391062681	0.0	1.3461089132058566	-0.3330360507318472	0.0	1.3434975046159712	-0.3863312637554621	0.0	1.0877906710808267	-0.45366712381913094	0.0	1.0732399165768174	-0.37871973407341336	0.0	1.1196629122544783	-0.4071485588262844	0.0	1.1058188035536984	-0.47192051750075636	0.0	1.2011849465264433	-0.5213549682388213	0.0	1.2802965548541225	-0.49417531970489686	0.0	1.0801548199938948	-0.4694738083344515	0.0	1.161845171596581	-0.5105554988658256	0.0	1.2192984206160686	-0.49084486014319095	0.0
152	5.0920000000000005	1.1957278581702655	-0.555169453876874	0.0	1.2085875083012514	-0.5627047563702063	0.0	1.3290964246773218	-0.5140633170076094	0.0	1.3857482661116325	-0.6352971011594586	0.0	1.4414763006917075	-0.651647197558696	0.0	1.43432328243794	-0.6596239813874779	0.0	1.380474645528459	-0.6513184781640561	0.0	1.1927977862130534	-0.5325935487605488	0.0	1.211173316263741	-0.4283798105573357	0.0	1.3374190408961362	-0.38127114749340263	0.0	1.3564788028747328	-0.33099478330015963	0.0	1.354953471668339	-0.3324997103956379	0.0	1.3540654313474976	-0.3883089804936675	0.0	1.0944609559821405	-0.4482472089476694	0.0	1.0805802482345788	-0.3732421268365706	0.0	1.127142007693004	-0.4019764519107452	0.0	1.1128477737934004	-0.46709221993261113	0.0	1.206774073310967	-0.5189137804950897	0.0	1.287035975696074	-0.492325710060497	0.0	1.0865116802181523	-0.4653075032532201	0.0	1.1678379721557994	-0.5069556963955606	0.0	1.2182455677798172	-0.48581138522290995	0.0
153	5.125500000000001	1.199243711726364	-0.5554204720806157	0.0	1.2110848922185815	-0.5634820518409367	0.0	1.3349394495798674	-0.5227857950910475	0.0	1.3860826389221477	-0.6459987800140157	0.0	1.440809705569381	-0.6670194933625013	0.0	1.433381298032368	-0.6740798310150152	0.0	1.3802640373539552	-0.6612770640698826	0.0	1.1965946039514193	-0.5327132563904184	0.0	1.221267979815672	-0.42850144339056184	0.0	1.348209860197219	-0.38412369907356914	0.0	1.3670720936342073	-0.3307514086877162	0.0	1.364033255131419	-0.33181511836667016	0.0	1.3640494474140863	-0.3905510644413479	0.0	1.1015519121535506	-0.443055523990999	0.0	1.0878874829079883	-0.3681951395021206	0.0	1.1345272792485137	-0.3970445624335627	0.0	1.1196495166183384	-0.46245309282181524	0.0	1.2119035034078844	-0.5165552467476675	0.0	1.2929215628370683	-0.48985120574107244	0.0	1.0938518153167638	-0.4609486312637519	0.0	1.176197746250282	-0.5005161817424633	0.0	1.2210256255995464	-0.4765709950440595	0.0
154	5.159000000000001	1.2027805766145836	-0.555447045647294	0.0	1.2138725229179406	-0.5640688322448737	0.0	1.340484964963724	-0.5317226385027336	0.0	1.3856801942982448	-0.6567959136970516	0.0	1.4392441185540672	-0.6816647368577153	0.0	1.4314823484415846	-0.687941478717735	0.0	1.37932894067331	-0.6712220585822906	0.0	1.2003823235220397	-0.5327583944754096	0.0	1.231639191618531	-0.4292268112249412	0.0	1.3589215522108848	-0.387460091380047	0.0	1.3784600594667866	-0.33097721907146443	0.0	1.3738605508604793	-0.33149055584281123	0.0	1.3738256133108058	-0.3931209599485441	0.0	1.1091544963059028	-0.43800645004673844	0.0	1.0954088665863602	-0.3633033260195033	0.0	1.1419016087073626	-0.39233912711046687	0.0	1.1263736248384832	-0.4579232175808961	0.0	1.2167500365114239	-0.5142175830150789	0.0	1.2984001611801057	-0.4869923434698777	0.0	1.1020880495827272	-0.45638536676861025	0.0	1.18627272931537	-0.4919766277084406	0.0	1.2283649113829127	-0.4636662505616666	0.0
155	5.1925	1.2061699482101151	-0.5556613095563736	0.0	1.2167051851342132	-0.5645292754354259	0.0	1.3456956213756799	-0.5406227426975627	0.0	1.3845078155883501	-0.6675964549193262	0.0	1.436651186873847	-0.6958425355861825	0.0	1.4285207063213214	-0.7013844745176387	0.0	1.3774300429275723	-0.6811429542018053	0.0	1.2040590410940577	-0.5333986168129627	0.0	1.2420134617591019	-0.43068408649315976	0.0	1.3697300352710524	-0.3913119406007693	0.0	1.3902440387172026	-0.3321525462222951	0.0	1.3846691171392809	-0.3322403375262363	0.0	1.3837701086104128	-0.3961979572395699	0.0	1.1173023630915877	-0.43310138264800013	0.0	1.1032321076868832	-0.35832625860189404	0.0	1.1493264479957686	-0.3877865893015727	0.0	1.1331789788282822	-0.45351642869425013	0.0	1.2215918730367716	-0.5118297088441651	0.0	1.3038095631191258	-0.48398718421335146	0.0	1.1108283914719088	-0.45163355419750617	0.0	1.1964837714489103	-0.48295812336346083	0.0	1.2389257081429679	-0.4494133678733736	0.0
156	5.226	1.2094116859501265	-0.5562920758746154	0.0	1.2195154453287438	-0.5648619523751284	0.0	1.350550910278496	-0.5493941954858081	0.0	1.382502218827577	-0.6783400773554938	0.0	1.4329302478092496	-0.7096978911336246	0.0	1.4244988351130206	-0.7144951896494625	0.0	1.374403754861135	-0.6910365816427537	0.0	1.207713677305595	-0.5351168741521837	0.0	1.2522100134966765	-0.4328702894755462	0.0	1.3807829805514336	-0.39580206702367465	0.0	1.4022244656197551	-0.33482488973202484	0.0	1.396489880142152	-0.3348476080084537	0.0	1.3941938449672928	-0.4000535008633285	0.0	1.1260110859270773	-0.42839022847135655	0.0	1.1113875705761993	-0.353121096505633	0.0	1.1569193022244857	-0.38331285097051404	0.0	1.1402679037736811	-0.4492393934796825	0.0	1.2267406140505186	-0.5093288263952176	0.0	1.309270287933612	-0.4809564020017057	0.0	1.1196063515614592	-0.4467520766652855	0.0	1.2052686229580991	-0.4749856045471155	0.0	1.2499694518949978	-0.43668548814116154	0.0
157	5.2595	1.212594224112274	-0.5572218935548635	0.0	1.222344511334023	-0.5650378543792838	0.0	1.3550332132194671	-0.5580729769359117	0.0	1.379678548746545	-0.6889975957205456	0.0	1.4281638432588306	-0.7232653753749355	0.0	1.4195999693491077	-0.7273119813434421	0.0	1.3703126867182216	-0.7008770704798868	0.0	1.2115256754688093	-0.5377776509148401	0.0	1.2622114113562533	-0.43574906458315493	0.0	1.392146086499863	-0.40111434157632503	0.0	1.414458961835977	-0.3394128237725775	0.0	1.409140501630606	-0.3397348273578936	0.0	1.4052323773613802	-0.40492209261281115	0.0	1.1351794085218312	-0.4239361657456084	0.0	1.1198586311857737	-0.34769505501420367	0.0	1.16478855067573	-0.3788982456507414	0.0	1.1477991569355308	-0.44503269532005896	0.0	1.2323932959096229	-0.5066862253890557	0.0	1.3147159166106894	-0.47788356182360847	0.0	1.128026177078178	-0.4417756383985735	0.0	1.211865262134365	-0.4685989676523505	0.0	1.2593305539700677	-0.42697453586972645	0.0
158	5.293	1.2157151657549186	-0.5580653884537176	0.0	1.22511515965075	-0.565063985899652	0.0	1.3590152749473794	-0.5666232056453082	0.0	1.3761807280560951	-0.6993828368791651	0.0	1.4227439735071348	-0.7363088081279185	0.0	1.4141971840031478	-0.7396480758788175	0.0	1.3654689362566872	-0.7105129721508435	0.0	1.2155774969060011	-0.5406529958728126	0.0	1.2718710236076045	-0.43935275071139784	0.0	1.4036691583864056	-0.40733969409905046	0.0	1.4269171070743805	-0.3460327490795995	0.0	1.4221960898782078	-0.3468165253397439	0.0	1.41667165550572	-0.41093082210646836	0.0	1.144409190115271	-0.4197972908568414	0.0	1.1284465171725284	-0.342335120889489	0.0	1.1728500825917914	-0.3746240483838095	0.0	1.1557028874828876	-0.44088237116583373	0.0	1.2385032646848655	-0.5039813991034028	0.0	1.3199494014679662	-0.4747327649715051	0.0	1.135773455210573	-0.4367862144207667	0.0	1.2164596110321642	-0.4635100435271795	0.0	1.2665088983819046	-0.4200088451526178	0.0
159	5.3265	1.2187165892551013	-0.5584857355847943	0.0	1.2276637778592687	-0.5650386009554428	0.0	1.3623497356247367	-0.5749759744426656	0.0	1.3721968437057248	-0.7092328546567338	0.0	1.4172315759032312	-0.748468039404562	0.0	1.4086820226808203	-0.751190081673327	0.0	1.3602730192297154	-0.7198182561672511	0.0	1.2198672336050391	-0.5429315844293093	0.0	1.2808906463222358	-0.4438145800684617	0.0	1.4150626865493285	-0.41446274713105696	0.0	1.4395088137373648	-0.35451623425363665	0.0	1.4352881644448219	-0.3557396705172357	0.0	1.4280921855970266	-0.4181464759074199	0.0	1.153182703723697	-0.4159875320858247	0.0	1.1368817625367003	-0.3374985919078139	0.0	1.1808957160076472	-0.37063794980521697	0.0	1.1637193148305938	-0.4369177889076303	0.0	1.2448846222113799	-0.5013986230748342	0.0	1.3248402410317024	-0.47148223666582256	0.0	1.1427380373468252	-0.43201561579808706	0.0	1.2198464357919327	-0.45921607600177206	0.0	1.2720469336100095	-0.41477897335595854	0.0
